# xmcd
#
# Track frame offsets: 
#        150
#        14707
#        30292
#        43072
#        55940
#        70912
#        85090
#        99330
#        113865
#        128430
#        143180
#        158560
#        174077
#        191317
#        208100
#        223212
#        236810
#        250025
#        266155
#        281567
#        295692
#        309810
#        325057
#
# Disc length: 4526 seconds
#
# Revision: 1
# Processed by: cddbd v1.5.2PL0 Copyright (c) Steve Scherf et al.
# Submitted via: ExactAudioCopyFreeDBPlugin 1.0
#
DISCID=3f11ac17
DTITLE=Sweetbox - Complete Best Disc1 - Classic Favors
DYEAR=2007
DGENRE=R&B
TTITLE0=Everything's Gonna Be Alright
TTITLE1=For The Lonely (Geo's Remix)
TTITLE2=Life Is Cool
TTITLE3=Addicted
TTITLE4=Cinderella
TTITLE5=Here Comes The Sun
TTITLE6=Superstar
TTITLE7=Don't Go Away (Radio Version)
TTITLE8=Everything's Gonna Be Alright (Jade's Version)
TTITLE9=Don't Push Me
TTITLE10=Hate Without Frontiers
TTITLE11=Sorry
TTITLE12=Sacred
TTITLE13=Testimony
TTITLE14=Human Sarcrifice
TTITLE15=Lacrimosa
TTITLE16=Somewhere
TTITLE17=Crazy
TTITLE18=Liberty
TTITLE19=Trying To Be Me
TTITLE20=Read My Mind
TTITLE21=Miss You
TTITLE22=Everything's Gonna Be Alright -Reborn-
EXTD=
EXTT0=
EXTT1=
EXTT2=
EXTT3=
EXTT4=
EXTT5=
EXTT6=
EXTT7=
EXTT8=
EXTT9=
EXTT10=
EXTT11=
EXTT12=
EXTT13=
EXTT14=
EXTT15=
EXTT16=
EXTT17=
EXTT18=
EXTT19=
EXTT20=
EXTT21=
EXTT22=
PLAYORDER=
